<svg width="305" height="344" viewBox="0 0 305 344" fill="none" xmlns="http://www.w3.org/2000/svg">
<path fill-rule="evenodd" clip-rule="evenodd" d="M148.85 0.823003C148.756 0.907003 144.109 1.081 138.523 1.211C105.114 1.988 67.574 7.62801 36.961 16.47C23.08 20.479 9.586 25.001 1.824 28.244L0.309998 28.876L0.578995 61.95C0.725995 80.14 0.920995 95.639 1.00999 96.391C1.09999 97.143 1.273 102.768 1.396 108.891C1.742 126.082 3.288 151.521 4.733 163.773C6.37 177.66 6.84 181.15 7.703 185.832C14.076 220.399 33.572 251.447 68.189 282.159C70.11 283.863 72.483 285.969 73.462 286.838C78.768 291.548 84.576 296.434 90.672 301.316C97.459 306.752 101.145 309.539 113.133 318.303C121.75 324.603 149.676 343.089 151.818 343.911C152.417 344.14 153.385 343.586 161.18 338.547C228.743 294.875 269.959 255.18 286.881 217.484C293.285 203.219 297.084 187.338 299.636 164.164C302.617 137.092 303.457 117.103 303.828 64.506L304.075 29.301L303.135 28.686C301.304 27.486 291.453 23.726 281.492 20.424C262.497 14.127 240.751 9.118 217.82 5.758C214.813 5.317 212.088 4.887 211.766 4.803C211.443 4.719 209.949 4.54301 208.445 4.41401C206.941 4.28401 205.271 4.094 204.734 3.993C199.968 3.091 178.626 1.613 165.663 1.287C160.834 1.165 155.114 0.977003 152.952 0.869003C150.789 0.761003 148.944 0.740003 148.85 0.823003ZM176.219 11.838C205.725 13.454 235.305 18.168 262.352 25.565C272.37 28.305 287.825 33.298 292.682 35.363L294.271 36.039L294.035 69.633C293.906 88.109 293.721 104.281 293.625 105.57C293.529 106.859 293.255 112.572 293.016 118.266C292.351 134.119 289.728 167.388 288.919 170.219C288.827 170.541 288.659 171.829 288.546 173.081C288.087 178.167 286.031 188.832 284.2 195.628C273.852 234.024 240.05 271.453 174.266 317.357C167.658 321.967 152.372 332.328 152.176 332.328C151.943 332.328 147.286 329.28 143.992 326.972C142.488 325.918 138.709 323.325 135.594 321.211C132.479 319.096 129.578 317.116 129.148 316.81C128.256 316.175 120.645 310.724 114.305 306.177C63.043 269.418 30.42 231.524 20.63 197.367C16.902 184.363 14.183 164.165 12.559 137.406C10.765 107.86 10.319 91.994 10.365 59.305L10.398 35.695L12.742 34.775C15.881 33.542 29.151 29.138 33.055 28.034C34.773 27.548 37.559 26.731 39.244 26.218C43.192 25.018 59.805 20.921 65.867 19.653C71.678 18.438 83.159 16.433 88.328 15.731C89.295 15.599 90.35 15.42 90.672 15.332C91.39 15.136 107.79 13.307 111.57 13.001C113.074 12.88 115.184 12.702 116.258 12.606C118.597 12.396 124.299 12.014 130.711 11.637C138.71 11.166 166.169 11.288 176.219 11.838ZM120.982 25.684C117.221 26.874 115.297 32.468 116.801 37.839C117.446 40.142 118.545 41.302 122.567 43.924C126.655 46.588 127.765 48.971 126.242 51.815C124.579 54.924 121.159 53.035 121.146 49.001C121.141 47.395 121.041 47.148 120.457 47.319C120.081 47.428 118.938 47.636 117.918 47.78L116.063 48.042L116.065 49.853C116.071 55.471 118.507 58.118 123.707 58.158C128.697 58.196 131.372 55.787 131.909 50.771C132.509 45.17 130.959 42.221 125.598 38.762C121.881 36.365 121.365 35.635 121.643 33.174C122.11 29.024 125.984 29.252 126.482 33.459L126.718 35.453H129.203H131.688V33.571C131.688 27.115 127.113 23.745 120.982 25.684ZM136.287 40.824C136.438 58.523 136.306 57.273 138.006 57.131C138.72 57.072 141.546 57.004 144.285 56.98L149.266 56.938V54.608V52.278L145.457 52.166L141.648 52.055L141.538 47.66L141.428 43.266H144.565H147.703V40.7V38.134L144.578 38.406L141.453 38.679V34.542V30.404L145.066 30.292L148.68 30.18L148.796 27.738L148.912 25.297H142.533H136.154L136.287 40.824ZM153.265 41.02L153.367 56.742L155.801 56.858L158.235 56.974L158.34 48.46L158.445 39.945L159.171 41.898C159.57 42.973 161.064 46.882 162.491 50.587L165.086 57.322L167.527 57.325L169.969 57.328V41.313V25.297H167.191H164.413L164.623 34.513C164.738 39.581 164.773 43.668 164.701 43.595C164.629 43.521 164.126 42.23 163.584 40.727C161.719 35.558 158.595 27.513 158.022 26.406C157.498 25.392 157.265 25.297 155.306 25.297H153.163L153.265 41.02ZM172.703 27.805V30.375H175.145H177.586L177.708 43.941C177.774 51.402 177.862 57.533 177.903 57.566C177.943 57.598 179.075 57.701 180.418 57.794L182.859 57.964V44.334V30.703L185.398 30.975L187.938 31.247V28.884C187.938 26.022 188.399 26.213 180.711 25.894C177.488 25.76 174.368 25.557 173.777 25.443L172.703 25.235V27.805ZM190.597 26.904C190.372 27.044 190.297 28.183 190.416 29.638C190.529 31.01 190.633 38.051 190.647 45.284L190.672 58.436L193.339 58.566L196.006 58.695L195.897 56.742C195.837 55.668 195.78 48.52 195.769 40.859L195.75 26.929L193.367 26.796C192.056 26.724 190.81 26.772 190.597 26.904ZM101.971 27.523L100.965 27.679L101.138 43.383C101.234 52.019 101.349 59.129 101.394 59.183C101.44 59.236 104.144 58.985 107.403 58.626L113.328 57.973V55.55V53.127L111.57 53.275C110.604 53.356 109.021 53.488 108.055 53.569L106.297 53.717L106.272 44.097C106.258 38.806 106.268 32.851 106.295 30.863L106.343 27.25L104.66 27.309C103.734 27.341 102.524 27.437 101.971 27.523ZM200.828 43.29V59.175L202.64 59.423C206.377 59.936 206.04 60.816 205.824 51.091C205.647 43.139 205.814 41.29 206.472 43.91C206.746 45.001 211.397 56.999 212.387 59.168C212.84 60.161 213.262 60.47 214.413 60.655C215.213 60.784 216.263 60.97 216.746 61.069L217.625 61.249V45.456V29.662L215.184 29.31C212.076 28.863 212.321 28.071 212.547 37.845C212.701 44.506 212.639 46.253 212.254 46.104C211.985 46.001 211.766 45.681 211.766 45.394C211.766 44.803 205.675 28.451 205.324 28.1C205.2 27.976 204.137 27.768 202.963 27.639L200.828 27.404V43.29ZM88.333 28.954L85.799 29.399L85.525 31.157C85.375 32.123 84.806 35.375 84.262 38.383C81.703 52.522 80.125 61.427 80.125 61.73C80.125 62.071 85.037 61.531 85.419 61.148C85.48 61.088 85.734 59.544 85.984 57.719C86.525 53.772 86.061 54.302 89.109 54.141C91.568 54.012 91.652 54.039 91.763 54.984C91.825 55.521 92.062 56.903 92.287 58.053L92.698 60.146L95.298 59.87C96.728 59.719 97.942 59.554 97.996 59.504C98.049 59.453 97.577 56.878 96.947 53.78C94.807 43.262 92.914 33.704 92.468 31.16C91.962 28.282 92.012 28.308 88.333 28.954ZM222.313 45.965V61.554L224.949 61.969C226.399 62.197 228.992 62.575 230.711 62.809C232.43 63.043 234.144 63.324 234.52 63.433C235.12 63.607 235.203 63.326 235.203 61.109V58.587L233.934 58.364C233.235 58.241 231.576 58.024 230.247 57.882L227.83 57.623L227.708 53.529L227.586 49.435L229.858 49.693C231.108 49.835 232.383 50.048 232.69 50.166C233.138 50.338 233.25 49.908 233.25 48.018C233.25 45.272 233.268 45.29 230.158 44.965L227.781 44.717V40.423V36.128L229.539 36.377C230.506 36.513 232.088 36.737 233.055 36.873L234.813 37.122V34.725C234.813 33.407 234.729 32.328 234.628 32.328C234.527 32.328 231.938 31.889 228.876 31.352C225.814 30.814 223.085 30.375 222.811 30.375C222.415 30.375 222.313 33.589 222.313 45.965ZM67.82 31.892C64.944 32.641 63.007 34.257 61.948 36.792C61.051 38.938 60.989 58.395 61.872 60.471C64.11 65.73 72.813 65.383 75.727 59.918C76.892 57.734 77.049 50.589 75.926 50.872C75.442 50.994 74.255 51.202 73.289 51.334L71.531 51.575V54.452C71.531 58.505 68.882 60.622 67.061 58.022C66.319 56.962 66.148 39.487 66.868 38.143C68.674 34.767 71.406 37 71.583 41.999C71.623 43.125 71.759 44.039 71.886 44.03C72.013 44.021 73.084 43.785 74.266 43.505L76.414 42.997L76.337 39.922C76.178 33.529 73.009 30.542 67.82 31.892ZM239.196 48.707L239.305 64.157L241.258 64.48C242.332 64.658 244.949 65.143 247.074 65.558C249.199 65.973 251.088 66.313 251.273 66.313C251.458 66.313 251.609 65.192 251.609 63.823V61.334L249.949 61.082C249.036 60.943 247.366 60.629 246.238 60.384L244.188 59.938V46.979V34.02L241.637 33.639L239.087 33.258L239.196 48.707ZM46.159 35.943C44.109 36.626 41.985 38.985 41.279 41.362C40.416 44.269 40.405 60.194 41.264 63.087C43.09 69.235 52.219 69.308 55.315 63.199C56.506 60.848 56.862 41.442 55.761 38.859C54.482 35.855 50.264 34.575 46.159 35.943ZM90.481 47.23L90.734 49.046L89.114 49.319C86.992 49.678 87.05 49.849 87.728 45.177C88.795 37.836 88.755 37.909 89.538 41.898C89.918 43.832 90.342 46.231 90.481 47.23ZM265.671 39.662C265.671 39.818 265.4 41.439 265.07 43.266C264.739 45.092 264.022 49.047 263.477 52.055C261.076 65.295 260.625 68.036 260.817 68.229C261.047 68.458 264.446 69.393 265.147 69.42C265.4 69.43 265.723 68.534 265.88 67.387C266.34 64.036 266.328 64.048 268.797 64.528L270.945 64.945L271.531 67.852L272.117 70.758L274.752 71.421L277.386 72.085L277.149 70.468C276.868 68.544 274.789 57.097 272.994 47.586L271.708 40.773L269.96 40.328C266.979 39.571 265.672 39.368 265.671 39.662ZM50.101 40.887C51.043 41.649 51.75 56.486 51.029 60.358C50.748 61.863 49.274 62.983 47.999 62.659C46.169 62.195 45.969 61.238 45.818 52.229C45.663 43.045 45.96 41.282 47.783 40.55C49.035 40.047 49.07 40.053 50.101 40.887ZM26.609 41.858L24.852 42.326L24.749 57.472C24.653 71.78 24.685 72.607 25.335 72.411C26.116 72.177 31.115 70.938 34.617 70.111L36.961 69.557L37.156 66.938C37.341 64.461 37.309 64.331 36.57 64.542C35.365 64.886 30.51 65.922 30.099 65.922C29.881 65.922 29.734 60.986 29.734 53.617C29.734 39.768 30.046 40.942 26.609 41.858ZM279.471 42.765C279.595 42.966 279.723 49.64 279.756 57.596C279.821 73.569 279.707 72.733 281.883 73.113C282.742 73.263 283.761 73.478 284.147 73.592C284.812 73.788 284.846 73.123 284.811 60.583C284.765 44.223 284.735 43.919 283.11 43.361C281.111 42.674 279.224 42.365 279.471 42.765ZM269.878 55.39L270.601 60.287L268.787 59.916L266.972 59.544L267.453 56.385C267.718 54.648 267.953 52.963 267.975 52.641C268.319 47.76 268.869 48.554 269.878 55.39ZM253.953 64.311C253.953 66.991 254.181 67.236 257.078 67.671L258.836 67.935L258.78 65.488C258.719 62.783 258.679 62.743 255.613 62.226L253.953 61.947V64.311ZM143.992 70.967C139.91 72.846 133.494 75.655 129.734 77.208C125.975 78.762 122.371 80.269 121.727 80.557C113.27 84.338 91.463 89.96 75.438 92.49C67.036 93.816 63.619 94.407 63.465 94.561C63.386 94.64 63.233 101.504 63.125 109.813L62.929 124.922L67.675 130.09C70.286 132.932 72.578 135.43 72.769 135.64C72.982 135.875 73.088 135.724 73.043 135.25C73.003 134.824 72.998 127.527 73.032 119.033L73.094 103.59L76.121 103.138C90.227 101.035 102.966 98.06 114.333 94.213C120.42 92.153 119.844 92.198 120.184 93.754C120.463 95.033 126.315 114.038 126.773 115.155C126.961 115.613 126.578 115.873 125.154 116.253C109.395 120.468 95.676 140.117 93.589 161.459L93.319 164.224L90.237 165.922L87.156 167.62L87.17 186.4L87.184 205.18L88.112 206.315C88.776 207.126 88.994 207.795 88.876 208.659C85.293 235.032 86.003 232.406 83.145 229.851L80.891 227.836L80.882 220.856L80.872 213.875L79.034 212.027C78.023 211.011 73.372 206.522 68.699 202.053L60.203 193.928L60.216 191.741C60.227 189.775 60.364 189.419 61.576 188.213C65.436 184.372 63.113 178.422 57.753 178.422C52.156 178.422 49.473 184.882 53.621 188.372L54.838 189.396L54.761 193.179L54.685 196.963L64.768 206.788L74.852 216.612V223.329V230.045L79.698 234.761L84.545 239.476L83.895 242.185C83.108 245.462 82.052 243.896 93.321 256.152C114.827 279.54 130.327 293.916 146.531 305.502C149.432 307.576 152.041 309.275 152.33 309.277C152.794 309.281 157.338 306.322 160.165 304.175C175.767 292.327 186.666 282.138 206.304 261.039C210.703 256.313 215.753 250.94 217.526 249.1C221.09 245.401 221.184 245.127 220.182 241.361L219.623 239.261L221.847 237.265C223.07 236.167 225.169 234.193 226.512 232.879L228.953 230.488V223.611V216.733L238.914 206.892L248.875 197.051V193.233C248.875 189.624 248.928 189.374 249.854 188.646C252.957 186.205 252.656 181.156 249.296 179.267C243.251 175.87 237.537 182.821 242.045 188.088C243.239 189.483 243.406 189.941 243.406 191.808V193.938L240.379 196.785C238.714 198.351 234.144 202.796 230.223 206.663L223.094 213.692V220.806V227.92L220.75 230.086C219.461 231.277 218.393 232.049 218.376 231.802C218.36 231.554 218.277 231 218.191 230.57C218.105 230.141 217.327 224.881 216.46 218.881C215.594 212.882 214.802 207.89 214.7 207.788C214.597 207.686 215.128 206.923 215.879 206.092L217.244 204.58L217.211 186.201L217.178 167.822L215.464 166.774C214.521 166.198 213.039 165.296 212.172 164.769C210.832 163.956 210.594 163.614 210.594 162.5C210.594 143.411 194.105 119.531 178.569 116.119C177.15 115.807 177.15 115.797 178.409 111.625C178.96 109.799 179.642 107.514 179.925 106.547C180.207 105.58 181.271 102.04 182.289 98.681L184.14 92.573L188.089 93.908C198.521 97.437 214.129 101.053 228.758 103.331L230.711 103.635L230.813 119.544C230.869 128.294 231.045 135.441 231.204 135.426C231.362 135.412 233.555 133.083 236.075 130.251L240.658 125.102L240.648 109.949L240.638 94.796L239.776 94.456C239.302 94.269 237.684 93.927 236.18 93.696C205.389 88.959 188.567 83.989 161.48 71.626C150.74 66.724 153.025 66.81 143.992 70.967ZM154.845 80.199C155.935 80.746 158.773 81.991 161.15 82.965C166.243 85.051 166.497 85.229 166.289 86.573C165.95 88.77 165.387 95.986 165.096 101.859C164.985 104.115 164.81 107.279 164.709 108.891L164.525 111.82L165.055 110.063C165.346 109.096 165.856 106.898 166.187 105.18C166.518 103.461 167.419 99.066 168.189 95.414C168.959 91.762 169.625 88.378 169.669 87.895C169.713 87.411 169.96 87.016 170.218 87.016C170.649 87.016 179.309 90.367 179.581 90.638C179.646 90.704 177.694 96.867 175.243 104.336C171.153 116.801 167.469 130.542 166.66 136.355C166.516 137.389 166.277 138.18 166.128 138.113C165.98 138.047 163.356 136.712 160.297 135.147L154.734 132.301L154.707 130.459C154.691 129.446 154.616 128.002 154.54 127.25C154.464 126.498 154.199 121.313 153.951 115.727C153.704 110.141 153.432 105.136 153.347 104.606C153.262 104.075 153.074 100.384 152.93 96.402C152.671 89.249 152.088 85.15 152.013 89.945C151.992 91.234 151.81 95.102 151.608 98.539C151.406 101.977 150.954 110.854 150.604 118.266C150.254 125.678 149.853 131.856 149.714 131.996C148.108 133.604 137.946 138.147 137.771 137.335C135.155 125.183 132.716 116.461 127.629 101.078C125.817 95.6 124.451 90.995 124.593 90.845C124.735 90.696 126.785 89.763 129.148 88.772C131.512 87.781 133.64 86.883 133.877 86.777C134.148 86.656 134.401 87.357 134.554 88.656C134.688 89.795 135.241 92.836 135.782 95.414C137.248 102.401 137.415 103.224 138.362 108.109C139.534 114.157 139.997 114.428 139.696 108.891C139.41 103.602 138.016 87.595 137.734 86.344C137.512 85.362 138.162 84.935 142.285 83.358C143.653 82.835 146.355 81.69 148.289 80.814C152.462 78.924 152.331 78.936 154.845 80.199ZM21.205 86.039C21.291 86.254 21.565 86.869 21.815 87.406C22.065 87.943 23.14 90.404 24.204 92.875C30.908 108.445 38.502 125.236 39.118 125.853C40.009 126.743 39.086 126.859 31.102 126.859C26.482 126.859 22.703 126.994 22.703 127.158C22.703 127.432 30.34 136.433 36.375 143.271C43.944 151.846 49.088 157.616 49.814 158.344C50.264 158.796 51.235 159.85 51.971 160.688C55.571 164.786 64.255 174.209 69.578 179.793C83.498 194.396 82.863 193.778 82.007 191.898C81.762 191.361 81.415 190.922 81.234 190.922C81.054 190.922 80.948 190.79 80.999 190.629C81.232 189.89 76.033 180.874 58.832 152.187C53.87 143.912 53.375 142.928 54.109 142.798C54.561 142.718 58.662 142.673 63.224 142.699C70.685 142.74 71.47 142.683 71.037 142.135C70.772 141.8 66.962 137.479 62.57 132.533C58.179 127.586 53.434 122.221 52.027 120.609C50.619 118.998 49.371 117.592 49.252 117.484C48.908 117.174 35.543 101.951 34.04 100.159C29.878 95.194 20.93 85.351 21.205 86.039ZM280.516 87.769C275.766 93.323 262.968 108.027 252.996 119.386C241.425 132.567 232.859 142.443 232.859 142.605C232.86 142.646 236.595 142.673 241.16 142.666C252.428 142.647 251.672 141.999 247.703 148.273C243.401 155.072 231.872 174.003 230.056 177.25C229.515 178.217 228.016 180.854 226.725 183.109C220.695 193.648 220.428 194.497 224.531 190.08C227.188 187.219 232.136 181.983 238.131 175.688C241.593 172.052 249.891 162.935 257.49 154.418C262.047 149.311 264.075 147.012 272.67 137.211C274.554 135.063 277.37 131.854 278.927 130.082L281.759 126.859H273.129C268.383 126.859 264.5 126.777 264.5 126.676C264.5 126.575 265.014 125.476 265.642 124.234C267.177 121.202 271.346 111.788 274.859 103.422C276.438 99.662 278.692 94.345 279.867 91.605C282.075 86.46 282.183 85.819 280.516 87.769ZM128.71 124.027C128.82 124.403 129.379 126.908 129.953 129.594C130.527 132.279 131.317 135.962 131.708 137.777C132.538 141.63 132.62 141.39 130.012 142.698C128.893 143.26 126.395 144.644 124.461 145.775C122.527 146.905 119.715 148.533 118.211 149.393C113.085 152.322 105.714 156.642 104.235 157.585C100.364 160.052 99.512 160.396 99.791 159.379C103.399 146.247 105.764 141.016 111.072 134.423C114.488 130.18 120.317 126.043 125.318 124.31C128.572 123.183 128.465 123.192 128.71 124.027ZM181.162 125.525C192.473 130.922 200.483 142.462 204.117 158.598C204.453 160.092 204.045 159.991 199.919 157.561C195.425 154.912 174.459 142.952 172.95 142.176C171.915 141.644 171.847 141.474 172.058 139.939C172.338 137.889 175.368 124.162 175.635 123.73C175.938 123.24 177.299 123.682 181.162 125.525ZM163.328 143.661C166.658 145.52 170.789 147.798 172.508 148.722C174.227 149.647 177.918 151.674 180.711 153.227C183.504 154.78 189.393 158.028 193.797 160.444C198.201 162.86 204.046 166.078 206.785 167.594L211.766 170.351V186.809V203.267L206.156 207.544C203.071 209.896 198.159 213.639 195.241 215.861C191.291 218.87 189.885 220.166 189.733 220.939C185.442 242.849 179.882 275.422 181.062 271.74C186.577 254.535 188.437 248.117 192.433 232.523C193.644 227.797 194.703 223.714 194.786 223.451C194.869 223.187 196.115 222.132 197.555 221.107C198.995 220.081 202.185 217.782 204.645 215.997C207.104 214.212 209.173 212.808 209.242 212.878C209.311 212.947 209.737 215.726 210.187 219.053C210.638 222.38 211.531 228.672 212.173 233.037C212.814 237.401 213.205 241.209 213.041 241.498C212.775 241.966 209.064 246.019 191.042 265.52C186.105 270.862 179.205 278.107 172.986 284.477L169.554 287.992L169.767 286.039C169.885 284.965 170.158 280.57 170.375 276.273C171.304 257.852 172.34 237.015 172.704 229.398C173.317 216.577 173.428 215.04 173.76 214.724C173.931 214.561 175.213 213.969 176.609 213.408C190.217 207.941 198.427 197.642 201.387 182.328C201.74 180.502 202.113 178.612 202.217 178.129C202.502 176.802 203.101 176.536 180.467 187.803L159.269 198.356L159.379 206.644C159.439 211.203 159.552 215.035 159.63 215.161C159.708 215.287 159.803 218.109 159.842 221.433L159.912 227.477L157.067 232.149C155.503 234.718 154.03 237.034 153.795 237.295C153.484 237.64 153.367 235.352 153.367 228.896C153.367 214.91 152.701 160.978 152.435 153.422L152.194 146.586L151.906 153.617C151.747 157.484 151.503 171.195 151.363 184.086C151.224 196.977 151.059 207.787 150.998 208.109C150.938 208.432 150.874 215.193 150.858 223.134C150.833 235.101 150.74 237.476 150.314 237.002C150.032 236.687 148.78 234.76 147.532 232.719C146.285 230.678 144.944 228.545 144.552 227.978C143.887 227.018 143.863 226.365 144.193 218.213C144.387 213.408 144.641 206.992 144.757 203.954L144.968 198.432L143.503 197.747C139.962 196.091 109.991 181.071 106.148 179.026L101.898 176.764L102.173 179.058C104.034 194.58 111.672 205.327 125.976 212.554L130.711 214.945L130.982 220.805C131.131 224.027 131.531 233.52 131.871 241.898C132.211 250.277 132.574 258.715 132.679 260.648C132.784 262.582 133.035 267.152 133.237 270.805C133.439 274.457 133.715 279.73 133.849 282.523L134.093 287.602L130.449 283.886C124.889 278.217 119.77 272.814 115.467 268.074C113.324 265.713 110.516 262.644 109.227 261.254C107.938 259.863 106.707 258.529 106.492 258.288C105.707 257.408 98.964 250.022 95.029 245.732L90.987 241.326L92.002 234.386C92.561 230.568 93.37 224.633 93.8 221.195C94.972 211.832 94.279 212.477 99.266 216.107C100.877 217.28 103.721 219.302 105.586 220.6C109.388 223.245 108.977 222.469 111.17 231.156C113.82 241.657 117.011 253.488 119.021 260.258C120.233 264.34 121.498 268.603 121.833 269.73C122.706 272.676 123.051 272.256 122.475 268.949C122.204 267.392 121.599 263.568 121.13 260.453C120.661 257.338 118.995 247.67 117.428 238.969C115.86 230.268 114.456 222.397 114.307 221.479C114.125 220.35 113.728 219.593 113.08 219.136C112.553 218.765 109.976 216.84 107.354 214.859C104.731 212.878 101.471 210.417 100.109 209.39C98.746 208.363 96.415 206.571 94.929 205.408L92.226 203.293L92.328 186.887L92.43 170.481L93.641 169.805C94.307 169.433 95.977 168.52 97.352 167.777C98.727 167.034 102.137 165.143 104.93 163.574C107.723 162.005 111.854 159.718 114.109 158.492C121.367 154.548 122.891 153.706 123.289 153.418C123.504 153.263 124.471 152.704 125.438 152.177C126.404 151.649 130.975 149.132 135.594 146.582C140.213 144.032 145.826 140.934 148.068 139.697L152.143 137.448L154.708 138.864C156.119 139.643 159.998 141.801 163.328 143.661ZM37.101 162.077C33.375 164.237 32.987 169.592 36.327 172.733L37.547 173.881V185.401V196.922L49.07 208.487L60.594 220.052V224.191V228.33L59.064 229.86C54.917 234.006 57.766 240.531 63.722 240.531C69.575 240.531 72.059 233.548 67.673 229.423L66.453 228.276L66.449 222.782L66.445 217.289L55.039 205.846L43.633 194.403L43.746 184.166C43.848 174.918 43.927 173.854 44.568 173.148C50.141 167.01 44.084 158.028 37.101 162.077ZM260.288 161.884C256.22 163.889 255.839 170.208 259.599 173.329C260.116 173.758 260.203 175.298 260.203 183.982V194.134L249.23 205.292C236.731 218.002 237.547 216.741 237.547 223.33V228.344L236.215 229.676C232.944 232.947 233.76 238.306 237.785 239.988C244.451 242.773 249.794 234.836 244.689 229.731L243.27 228.312L243.37 223.997L243.469 219.682L254.961 208.198L266.453 196.714V185.113V173.512L267.664 172.797C274.475 168.773 267.437 158.361 260.288 161.884Z" fill="white"/>
</svg>
